<svg width="86" height="84" viewBox="0 0 86 84" fill="none" xmlns="http://www.w3.org/2000/svg">
<path fill-rule="evenodd" clip-rule="evenodd" d="M43.3411 0.295044C19.772 0.295044 0.682129 19.3849 0.682129 42.954C0.682129 61.8306 12.8932 77.7743 29.8502 83.4266C31.9831 83.7999 32.783 82.5201 32.783 81.4003C32.783 80.3872 32.7296 77.0278 32.7296 73.4551C22.0116 75.4281 19.2388 70.8423 18.3856 68.4427C17.9057 67.2162 15.826 63.4303 14.013 62.4171C12.52 61.6173 10.387 59.6443 13.9597 59.591C17.3191 59.5376 19.7187 62.6837 20.5185 63.9635C24.3578 70.4157 30.4901 68.6027 32.9429 67.4829C33.3162 64.71 34.436 62.8437 35.6625 61.7772C26.1708 60.7108 16.2526 57.0314 16.2526 40.7144C16.2526 36.0752 17.9057 32.2359 20.6252 29.2498C20.1986 28.1833 18.7055 23.8108 21.0518 17.9452C21.0518 17.9452 24.6245 16.8254 32.783 22.3177C36.1957 21.3579 39.8217 20.878 43.4477 20.878C47.0737 20.878 50.6997 21.3579 54.1124 22.3177C62.271 16.7721 65.8436 17.9452 65.8436 17.9452C68.1899 23.8108 66.6968 28.1833 66.2702 29.2498C68.9897 32.2359 70.6428 36.0219 70.6428 40.7144C70.6428 57.0848 60.6712 60.7108 51.1796 61.7772C52.726 63.1103 54.0591 65.6699 54.0591 69.6691C54.0591 75.3748 54.0058 79.9606 54.0058 81.4003C54.0058 82.5201 54.8056 83.8532 56.9386 83.4266C73.7889 77.7743 86 61.7772 86 42.954C86 19.3849 66.9101 0.295044 43.3411 0.295044Z" fill="white" fill-opacity="0.8"/>
</svg>
