<svg width="84" height="84" viewBox="0 0 84 84" fill="none" xmlns="http://www.w3.org/2000/svg">
<g clip-path="url(#clip0_23_11066)">
<path d="M41.6064 0.428589C64.5863 0.428589 83.2131 19.0579 83.2131 42.0353C83.2131 65.0126 64.5863 83.6417 41.6064 83.6417C18.6265 83.6417 0 65.0124 0 42.0353C0 19.0582 18.6267 0.428589 41.6064 0.428589Z" fill="white" fill-opacity="0.8"/>
<path d="M23.4469 57.5946H31.2378V31.6268H23.4469V57.5946ZM53.7989 30.7273C50.0179 30.7273 46.6347 32.1081 44.2348 35.1559V31.5414H36.4153V57.5949H44.2348V43.5059C44.2348 40.5283 46.9627 37.6236 50.3795 37.6236C53.7964 37.6236 54.639 40.5283 54.639 43.433V57.5923H62.4299V42.8532C62.4296 32.6152 57.5826 30.7273 53.7989 30.7273ZM27.3059 29.0318C29.4591 29.0318 31.2066 27.2842 31.2066 25.131C31.2066 22.9779 29.4591 21.2306 27.3059 21.2306C25.1527 21.2306 23.4052 22.9782 23.4052 25.1313C23.4052 27.2845 25.1527 29.0318 27.3059 29.0318Z" fill="#090E16"/>
</g>
<defs>
<clipPath id="clip0_23_11066">
<rect width="83.2131" height="83.2131" fill="white" transform="translate(0 0.428833)"/>
</clipPath>
</defs>
</svg>
