<svg width="121" height="120" viewBox="0 0 121 120" fill="none" xmlns="http://www.w3.org/2000/svg">
<g clip-path="url(#clip0_23_15298)">
<path d="M60.4515 120C93.5384 120 120.361 93.178 120.361 60.0912C120.361 27.0043 93.5384 0.182129 60.4515 0.182129C27.3647 0.182129 0.54248 27.0043 0.54248 60.0912C0.54248 93.178 27.3647 120 60.4515 120Z" fill="#05930C"/>
<path d="M18.7504 17.0781L103.388 101.871C92.504 113.054 77.2889 120 60.4515 120C27.3647 120 0.54248 93.178 0.54248 60.0911C0.54248 43.214 7.52124 27.9669 18.7504 17.0781Z" fill="white" fill-opacity="0.1"/>
<path d="M57.5121 81.7145C53.4366 83.6975 48.9364 84.6489 44.407 84.4853C38.3514 84.7507 32.4759 82.3896 28.2878 78.0077C24.1263 73.3428 21.9558 67.2345 22.2407 60.9897C21.9478 54.2225 24.4059 47.6247 29.0554 42.6988C33.6004 38.0489 39.8932 35.5276 46.3915 35.7531C50.1875 35.6082 53.9728 36.2454 57.5121 37.6252V43.5225C54.0793 41.6145 50.2063 40.6398 46.2792 40.6956C41.3324 40.5316 36.5556 42.5106 33.1741 46.1248C29.6685 50.121 27.8556 55.3246 28.1193 60.634C27.86 65.6517 29.5504 70.5754 32.8371 74.3757C36.026 77.8043 40.5521 79.6708 45.2308 79.4867C49.545 79.5939 53.8039 78.4984 57.5309 76.3227L57.5121 81.7145ZM99.3174 49.7194L98.5686 53.2016H89.9566L87.8973 63.0866H97.1457L96.2658 66.5688H87.2046L84.3027 79.6739H80.1653L82.9922 66.5688H74.7547L71.9839 79.6739H67.9401L70.7109 66.5688H62.024L62.6793 63.0866H71.4036L73.4068 53.2203H64.2894L64.9821 49.7381H74.0995L76.8703 36.5019H81.0452L78.2744 49.7381H86.568L89.395 36.5019H93.4388L90.6681 49.7381L99.3174 49.7194ZM85.8941 53.2016H77.5817L75.4287 63.0866H83.7785L85.8941 53.2016Z" fill="white"/>
</g>
<defs>
<clipPath id="clip0_23_15298">
<rect width="119.818" height="119.818" fill="white" transform="translate(0.54248 0.182129)"/>
</clipPath>
</defs>
</svg>
