<svg width="121" height="120" viewBox="0 0 121 120" fill="none" xmlns="http://www.w3.org/2000/svg">
<path fill-rule="evenodd" clip-rule="evenodd" d="M112.909 35.9873C112.908 34.0197 112.488 32.2812 111.638 30.7893C110.803 29.3218 109.552 28.0924 107.875 27.1198C94.0281 19.1282 80.1682 11.1609 66.3265 3.16118C62.5948 1.00503 58.9764 1.08345 55.2723 3.27088C49.761 6.52441 22.1679 22.3484 13.9455 27.1153C10.5595 29.0776 8.91161 32.0805 8.9108 35.9837C8.90552 52.0555 8.9108 68.1264 8.90552 84.1986C8.90633 86.1228 9.30896 87.8276 10.1215 89.2975C10.9568 90.8089 12.2249 92.0724 13.941 93.067C22.1638 97.8339 49.7606 113.657 55.2707 116.911C58.9764 119.1 62.5948 119.178 66.3277 117.021C80.1698 109.021 94.0306 101.054 107.879 93.0621C109.595 92.0679 110.863 90.8036 111.699 89.2934C112.51 87.8235 112.913 86.1187 112.914 84.1942C112.914 84.1942 112.914 52.0595 112.909 35.9873" fill="#A9B9CB"/>
<path fill-rule="evenodd" clip-rule="evenodd" d="M66.2326 3.26567C62.507 1.1148 58.8947 1.19322 55.1967 3.37496C49.6944 6.61995 22.1463 22.4029 13.9373 27.1576C10.5567 29.1147 8.91161 32.1098 8.9108 36.0028C8.90552 52.0328 8.9108 68.0623 8.90552 84.0927C8.90633 86.0119 9.30815 87.7122 10.1195 89.1781C10.9536 90.6858 12.2196 91.9461 13.9329 92.9379C15.8136 94.0271 18.7104 95.6957 22.1232 97.6589L98.1357 21.6464C87.5 15.522 76.8614 9.40259 66.2326 3.26567" fill="#7F8B99"/>
<path fill-rule="evenodd" clip-rule="evenodd" d="M71.6585 52.7648L87.8444 52.879C87.8444 46.1351 81.018 29.6196 61.4469 29.6196C48.9776 29.6196 32.2144 37.547 32.2144 60.3388C32.2144 83.1301 48.6473 90.5623 61.4469 90.5623C82.1743 90.5623 87.1281 76.2196 87.1281 68.1142L71.6865 67.2314C71.6865 67.2314 72.0997 76.6064 61.3644 76.6064C51.4552 76.6064 49.8016 64.4674 49.8016 60.3388C49.8016 54.0629 52.0333 43.9883 61.3644 43.9883C70.696 43.9883 71.6585 52.7648 71.6585 52.7648" fill="white"/>
</svg>
