<svg width="108" height="108" viewBox="0 0 108 108" fill="none" xmlns="http://www.w3.org/2000/svg">
<path fill-rule="evenodd" clip-rule="evenodd" d="M15.5049 96.9964L6.90015 0.487305H101.453L92.8387 96.9805L54.1192 107.716L15.5049 96.9964Z" fill="#0071BC"/>
<path fill-rule="evenodd" clip-rule="evenodd" d="M54.2559 99.505L85.5043 90.9085L92.8257 8.52441H54.2559V99.505Z" fill="#29ABE2"/>
<path fill-rule="evenodd" clip-rule="evenodd" d="M26.5964 43.9813L27.633 55.8003L54.2559 43.9813V32.1431L26.5964 43.9813Z" fill="#B3B3B3"/>
<path fill-rule="evenodd" clip-rule="evenodd" d="M83.7416 19.5063L54.2559 32.1431V43.9813L82.7249 31.3254L83.7416 19.5063Z" fill="#E6E6E6"/>
<path fill-rule="evenodd" clip-rule="evenodd" d="M54.2558 74.9057L54.1644 74.9194L40.9613 71.3737L40.0987 61.9463H28.2161L29.8743 80.5188L54.1618 87.2436L54.2558 87.2214V74.9057Z" fill="#E6E6E6"/>
<path fill-rule="evenodd" clip-rule="evenodd" d="M54.2559 43.9814V55.8005H68.7111L67.3972 71.253L54.2559 74.916V87.2307L78.4627 80.5059L81.6503 43.9814H54.2559Z" fill="white"/>
<path fill-rule="evenodd" clip-rule="evenodd" d="M54.2559 43.9814H26.5964L27.633 55.8005H54.2559V43.9814Z" fill="#E6E6E6"/>
<path fill-rule="evenodd" clip-rule="evenodd" d="M54.2559 31.3254V19.5063H54.1358H24.495L25.5438 31.3254H54.2559Z" fill="#E6E6E6"/>
<path fill-rule="evenodd" clip-rule="evenodd" d="M54.2559 19.5063V31.1772V31.3254H82.7249L83.7416 19.5063H54.2559Z" fill="white"/>
</svg>
