<svg width="112" height="112" viewBox="0 0 112 112" fill="none" xmlns="http://www.w3.org/2000/svg">
<g clip-path="url(#clip0_23_15284)">
<path d="M37.3471 111.669C47.5715 111.669 55.8697 103.371 55.8697 93.1466V74.624H37.3471C27.1226 74.624 18.8245 82.9221 18.8245 93.1466C18.8245 103.371 27.1226 111.669 37.3471 111.669Z" fill="#0ACF83"/>
<path d="M18.8245 56.1017C18.8245 45.8772 27.1226 37.5791 37.3471 37.5791H55.8697V74.6243H37.3471C27.1226 74.6243 18.8245 66.3262 18.8245 56.1017Z" fill="#A259FF"/>
<path d="M18.8245 19.0563C18.8245 8.83182 27.1226 0.533691 37.3471 0.533691H55.8697V37.5789H37.3471C27.1226 37.5789 18.8245 29.2808 18.8245 19.0563Z" fill="#F24E1E"/>
<path d="M55.8699 0.533691H74.3925C84.617 0.533691 92.9151 8.83182 92.9151 19.0563C92.9151 29.2808 84.617 37.5789 74.3925 37.5789H55.8699V0.533691Z" fill="#FF7262"/>
<path d="M92.9151 56.1017C92.9151 66.3262 84.617 74.6243 74.3925 74.6243C64.168 74.6243 55.8699 66.3262 55.8699 56.1017C55.8699 45.8772 64.168 37.5791 74.3925 37.5791C84.617 37.5791 92.9151 45.8772 92.9151 56.1017Z" fill="#1ABCFE"/>
</g>
<defs>
<clipPath id="clip0_23_15284">
<rect width="111.136" height="111.136" fill="white" transform="translate(0.157227 0.533691)"/>
</clipPath>
</defs>
</svg>
