<svg width="120" height="120" viewBox="0 0 120 120" fill="none" xmlns="http://www.w3.org/2000/svg">
<g clip-path="url(#clip0_23_15300)">
<path fill-rule="evenodd" clip-rule="evenodd" d="M115.897 54.9043L65.0075 4.01866C62.0789 1.08753 57.3254 1.08753 54.393 4.01866L43.8258 14.5858L57.2308 27.9908C60.3461 26.9383 63.9179 27.6442 66.4014 30.1278C68.8965 32.6267 69.5973 36.2292 68.5192 39.3547L81.4382 52.2737C84.5637 51.1969 88.1701 51.8939 90.6664 54.3941C94.1552 57.8815 94.1552 63.534 90.6664 67.024C87.1764 70.514 81.5239 70.514 78.0326 67.024C75.4084 64.3973 74.76 60.5428 76.0888 57.3098L64.0407 45.2617L64.0394 76.9671C64.8898 77.3891 65.6929 77.9506 66.4014 78.6565C69.8901 82.1439 69.8901 87.7965 66.4014 91.289C62.9114 94.7777 57.2563 94.7777 53.7715 91.289C50.2827 87.7965 50.2827 82.1439 53.7715 78.6565C54.6334 77.7958 55.6309 77.1449 56.6949 76.7075V44.7067C55.6309 44.2719 54.6347 43.6248 53.7715 42.7577C51.1281 40.1182 50.4925 36.2394 51.8468 32.9937L38.6336 19.778L3.74008 54.669C0.807668 57.6027 0.807668 62.3562 3.74008 65.2873L54.6296 116.174C57.5594 119.105 62.3117 119.105 65.2453 116.174L115.897 65.5239C118.828 62.5915 118.828 57.8355 115.897 54.9043" fill="#DE4C36"/>
</g>
<defs>
<clipPath id="clip0_23_15300">
<rect width="117.01" height="116.555" fill="white" transform="translate(1.54041 1.82031)"/>
</clipPath>
</defs>
</svg>
