<svg width="121" height="120" viewBox="0 0 121 120" fill="none" xmlns="http://www.w3.org/2000/svg">
<path fill-rule="evenodd" clip-rule="evenodd" d="M60.2489 2.99023C27.9415 2.99023 1.74353 29.1834 1.74353 61.4956C1.74353 87.3449 18.5071 109.275 41.7531 117.011C44.677 117.553 45.7505 115.742 45.7505 114.197C45.7505 112.802 45.6962 108.193 45.671 103.304C29.3948 106.843 25.9603 96.4014 25.9603 96.4014C23.2989 89.639 19.4643 87.8409 19.4643 87.8409C14.1561 84.2097 19.8644 84.2843 19.8644 84.2843C25.7394 84.6971 28.8328 90.3133 28.8328 90.3133C34.0509 99.2575 42.5194 96.6717 45.858 95.1768C46.3831 91.3955 47.8993 88.8146 49.5725 87.3536C36.5776 85.8742 22.9172 80.8576 22.9172 58.44C22.9172 52.0525 25.2027 46.8334 28.9452 42.7363C28.3378 41.2627 26.3352 35.3122 29.512 27.2535C29.512 27.2535 34.4249 25.6811 45.6051 33.2505C50.272 31.9542 55.2769 31.3041 60.2489 31.2819C65.2209 31.3041 70.2298 31.9542 74.9053 33.2505C86.072 25.6811 90.9781 27.2535 90.9781 27.2535C94.1627 35.3122 92.1591 41.2627 91.5517 42.7363C95.303 46.8334 97.5729 52.0525 97.5729 58.44C97.5729 80.9109 83.8863 85.8587 70.8585 87.3071C72.957 89.1227 74.8268 92.6831 74.8268 98.1414C74.8268 105.97 74.759 112.27 74.759 114.197C74.759 115.754 75.8121 117.578 78.7777 117.003C102.011 109.259 118.753 87.3361 118.753 61.4956C118.753 29.1834 92.5592 2.99023 60.2489 2.99023ZM23.6557 86.3324C23.5269 86.6231 23.0696 86.7103 22.653 86.5107C22.2286 86.3198 21.9903 85.9236 22.1279 85.632C22.2538 85.3326 22.7121 85.2493 23.1354 85.4498C23.5608 85.6407 23.803 86.0408 23.6557 86.3324ZM26.5335 88.9003C26.2545 89.1589 25.7091 89.0388 25.339 88.63C24.9563 88.2221 24.8846 87.6766 25.1675 87.4141C25.4552 87.1554 25.9842 87.2765 26.3679 87.6844C26.7505 88.0971 26.8251 88.6387 26.5335 88.9003ZM28.5078 92.1857C28.1493 92.4347 27.5632 92.2012 27.2009 91.681C26.8424 91.1607 26.8424 90.5368 27.2086 90.2868C27.5719 90.0369 28.1493 90.2616 28.5165 90.778C28.874 91.307 28.874 91.9309 28.5078 92.1857ZM31.8468 95.9907C31.5261 96.3444 30.8431 96.2494 30.3431 95.7669C29.8316 95.2951 29.6892 94.6257 30.0108 94.272C30.3354 93.9175 31.0223 94.0172 31.5261 94.4958C32.0337 94.9667 32.1888 95.641 31.8468 95.9907ZM36.162 97.2753C36.0206 97.7335 35.3627 97.9418 34.7001 97.7471C34.0384 97.5465 33.6053 97.0098 33.739 96.5467C33.8766 96.0856 34.5373 95.8685 35.2048 96.0768C35.8656 96.2764 36.2996 96.8093 36.162 97.2753ZM41.073 97.8201C41.0894 98.3026 40.5275 98.7027 39.8319 98.7115C39.1324 98.727 38.5666 98.3365 38.5589 97.8618C38.5589 97.3745 39.1082 96.9782 39.8077 96.9666C40.5033 96.953 41.073 97.3406 41.073 97.8201ZM45.8974 97.6352C45.9808 98.1061 45.4973 98.5895 44.8065 98.7184C44.1274 98.8424 43.4986 98.5517 43.4124 98.0847C43.3281 97.6023 43.8203 97.1188 44.4985 96.9939C45.1902 96.8737 45.8093 97.1566 45.8974 97.6352Z" fill="white"/>
</svg>
