<svg width="108" height="108" viewBox="0 0 108 108" fill="none" xmlns="http://www.w3.org/2000/svg">
<g clip-path="url(#clip0_23_15290)">
<path fill-rule="evenodd" clip-rule="evenodd" d="M15.6712 96.8234L7.10156 0.70459H101.267L92.6887 96.8084L54.1269 107.499L15.6712 96.8234Z" fill="#E44D26"/>
<path fill-rule="evenodd" clip-rule="evenodd" d="M54.1846 99.3273L85.3444 90.6885L92.6755 8.56348H54.1846V99.3273Z" fill="#F16529"/>
<path d="M38.5851 44.2129H54.1844V56.0014H27.8039L24.6243 20.3525H54.1844V32.1412H37.5077L38.5851 44.2129Z" fill="#EBEBEB"/>
<path d="M54.1328 74.8429L54.1844 74.8291V87.0942L54.1302 87.1093L29.9822 80.4056L28.3306 61.8959H40.1645L41.0037 71.2978L54.1328 74.8429Z" fill="#EBEBEB"/>
<path d="M54.1438 20.3525H83.6744L82.6188 32.1412H54.1438V20.3525Z" fill="white"/>
<path d="M54.1438 56.0014V44.2129H81.5462L81.2585 47.3785L78.311 80.4056L54.1438 87.1036V74.839L67.2918 71.2903L68.6601 56.0014H54.1438Z" fill="white"/>
</g>
<defs>
<clipPath id="clip0_23_15290">
<rect width="106.794" height="106.794" fill="white" transform="translate(0.843994 0.70459)"/>
</clipPath>
</defs>
</svg>
