<svg width="109" height="108" viewBox="0 0 109 108" fill="none" xmlns="http://www.w3.org/2000/svg">
<g clip-path="url(#clip0_23_15292)">
<path fill-rule="evenodd" clip-rule="evenodd" d="M0.824463 0.487305H108.053V107.716H0.824463V0.487305V0.487305Z" fill="#F7DF1E"/>
<path fill-rule="evenodd" clip-rule="evenodd" d="M29.0188 90.0955L37.2247 85.1295C38.8078 87.9363 40.2479 90.3112 43.7022 90.3112C47.0133 90.3112 49.1009 89.0159 49.1009 83.9779V49.7158H59.1776V84.1203C59.1776 94.5572 53.0598 99.3078 44.1342 99.3078C36.0731 99.3078 31.3939 95.1329 29.0187 90.0947" fill="black"/>
<path fill-rule="evenodd" clip-rule="evenodd" d="M64.651 89.0157L72.8559 84.2652C75.0157 87.7925 77.8229 90.3835 82.7891 90.3835C86.9644 90.3835 89.6269 88.2959 89.6269 85.4168C89.6269 81.9618 86.8919 80.738 82.2852 78.7233L79.7666 77.6429C72.4964 74.5484 67.6737 70.6616 67.6737 62.4559C67.6737 54.8982 73.4318 49.1396 82.4295 49.1396C88.8356 49.1396 93.4422 51.3712 96.7528 57.2015L88.9071 62.2397C87.1795 59.1449 85.3087 57.9215 82.4297 57.9215C79.4785 57.9215 77.6069 59.7929 77.6069 62.2397C77.6069 65.2629 79.4785 66.4868 83.7967 68.3584L86.3158 69.438C94.8813 73.1091 99.704 76.8516 99.704 85.2728C99.704 94.3426 92.5782 99.3086 83.0053 99.3086C73.6482 99.3086 67.6018 94.8462 64.6512 89.0157" fill="black"/>
</g>
<defs>
<clipPath id="clip0_23_15292">
<rect width="107.229" height="107.229" fill="white" transform="translate(0.824463 0.487305)"/>
</clipPath>
</defs>
</svg>
