<svg width="185" height="98" viewBox="0 0 185 98" fill="none" xmlns="http://www.w3.org/2000/svg">
<path d="M136.778 35.3245C140.818 35.3245 143.487 36.0459 144.857 37.5606C146.228 39.0754 146.516 41.6 145.795 45.2066C145.074 48.9574 143.631 51.6984 141.539 53.2853C139.447 54.8722 136.273 55.6656 132.018 55.6656H125.598L129.565 35.3245H136.778Z" fill="#7377AD"/>
<path d="M54.0435 35.3245C58.0829 35.3245 60.7517 36.0459 62.1222 37.5606C63.4927 39.0754 63.7813 41.6 63.06 45.2066C62.3386 48.9574 60.896 51.6984 58.8042 53.2853C56.7124 54.8722 53.5386 55.6656 49.2828 55.6656H42.8631L46.8304 35.3245H54.0435Z" fill="#7377AD"/>
<path fill-rule="evenodd" clip-rule="evenodd" d="M92.4175 94.0396C141.417 94.0396 181.139 73.9202 181.139 49.1017C181.139 24.2831 141.417 4.16371 92.4175 4.16371C43.4178 4.16371 3.69569 24.2831 3.69569 49.1017C3.69569 73.9202 43.4178 94.0396 92.4175 94.0396ZM121.559 76.2953H110.955L120.405 27.6065H140.818C146.949 27.6065 151.421 29.1934 154.234 32.4393C157.047 35.6852 157.913 40.1574 156.759 45.9279C156.326 48.3082 155.533 50.4722 154.451 52.4197C153.369 54.3673 151.926 56.1706 150.123 57.8296C147.959 59.8493 145.651 61.2198 143.054 62.0853C140.457 62.9509 137.211 63.3837 133.172 63.3837H124.083L121.559 76.2953ZM81.8142 14.6949H92.3454L89.8208 27.6065H99.1979C105.113 27.6065 109.152 28.6163 111.388 30.7081C113.624 32.7999 114.273 36.118 113.408 40.7344L109.008 63.3837H98.3323L102.516 41.8164C103.021 39.3639 102.804 37.7049 102.011 36.8393C101.218 35.9737 99.4143 35.4688 96.7454 35.4688H88.306L82.8961 63.3837H72.3649L81.8142 14.6949ZM38.8238 76.2953H28.2204L37.6696 27.6065H58.0829C64.2141 27.6065 68.6862 29.1934 71.4993 32.4393C74.3125 35.6852 75.1781 40.1574 74.024 45.9279C73.5912 48.3082 72.7977 50.4722 71.7157 52.4197C70.6338 54.3673 69.1911 56.1706 67.3878 57.8296C65.2239 59.8493 62.9157 61.2198 60.319 62.0853C57.7222 62.9509 54.4763 63.3837 50.4369 63.3837H41.3484L38.8238 76.2953Z" fill="#7377AD"/>
<path fill-rule="evenodd" clip-rule="evenodd" d="M184.746 49.1017C184.746 75.9121 143.409 97.6462 92.4175 97.6462C41.4259 97.6462 0.0891113 75.9121 0.0891113 49.1017C0.0891113 22.2913 41.4259 0.557129 92.4175 0.557129C143.409 0.557129 184.746 22.2913 184.746 49.1017ZM183.269 49.1017C183.269 61.6848 173.541 73.4318 157.016 82.1203C140.56 90.7728 117.723 96.1689 92.4175 96.1689C67.112 96.1689 44.2754 90.7728 27.8189 82.1203C11.2939 73.4318 1.56637 61.6848 1.56637 49.1017C1.56637 36.5186 11.2939 24.7716 27.8189 16.083C44.2754 7.43055 67.112 2.03438 92.4175 2.03438C117.723 2.03438 140.56 7.43055 157.016 16.083C173.541 24.7716 183.269 36.5186 183.269 49.1017Z" fill="#7377AD"/>
</svg>
