<svg width="121" height="120" viewBox="0 0 121 120" fill="none" xmlns="http://www.w3.org/2000/svg">
<g clip-path="url(#clip0_23_15297)">
<path d="M60.0796 0.650391C29.7355 0.650393 31.6304 13.8094 31.6304 13.8094L31.6642 27.442H60.6208V31.5352H20.1628C20.1628 31.5352 0.745605 29.3331 0.745605 59.9505C0.745603 90.568 17.6933 89.4822 17.6933 89.4822H27.8078V75.2745C27.8078 75.2745 27.2626 58.3268 44.485 58.3268H73.2048C73.2048 58.3268 89.3406 58.5876 89.3406 42.7322V16.5156C89.3406 16.5156 91.7905 0.650391 60.0796 0.650391ZM44.1128 9.81772C46.9938 9.81772 49.3223 12.1462 49.3223 15.0272C49.3223 17.9082 46.9938 20.2367 44.1128 20.2367C41.2319 20.2367 38.9034 17.9082 38.9034 15.0272C38.9034 12.1462 41.2319 9.81772 44.1128 9.81772Z" fill="url(#paint0_linear_23_15297)"/>
<path d="M60.9414 119.557C91.2855 119.557 89.3906 106.398 89.3906 106.398L89.3568 92.7657H60.4002V88.6725H100.858C100.858 88.6725 120.275 90.8746 120.275 60.2571C120.275 29.6397 103.328 30.7255 103.328 30.7255H93.2131V44.9331C93.2131 44.9331 93.7583 61.8809 76.536 61.8809H47.8162C47.8162 61.8809 31.6804 61.62 31.6804 77.4755V103.692C31.6804 103.692 29.2305 119.557 60.9414 119.557ZM76.9081 110.39C74.0272 110.39 71.6986 108.061 71.6986 105.18C71.6986 102.299 74.0272 99.971 76.9081 99.971C79.7891 99.971 82.1176 102.299 82.1176 105.18C82.1176 108.061 79.7891 110.39 76.9081 110.39Z" fill="url(#paint1_linear_23_15297)"/>
</g>
<defs>
<linearGradient id="paint0_linear_23_15297" x1="12.2326" y1="11.3458" x2="71.4672" y2="69.9894" gradientUnits="userSpaceOnUse">
<stop stop-color="#387EB8"/>
<stop offset="1" stop-color="#366994"/>
</linearGradient>
<linearGradient id="paint1_linear_23_15297" x1="48.5909" y1="49.0025" x2="112.203" y2="109.137" gradientUnits="userSpaceOnUse">
<stop stop-color="#FFE052"/>
<stop offset="1" stop-color="#FFC331"/>
</linearGradient>
<clipPath id="clip0_23_15297">
<rect width="119.818" height="119.818" fill="white" transform="translate(0.745605 0.182129)"/>
</clipPath>
</defs>
</svg>
