<svg width="143" height="129" viewBox="0 0 143 129" fill="none" xmlns="http://www.w3.org/2000/svg">
<path d="M112.512 44.213C111.164 43.7507 109.805 43.3224 108.436 42.9285C108.663 42.0057 108.873 41.0787 109.066 40.1481C112.151 25.1686 110.134 13.1012 103.244 9.12873C96.6378 5.31884 85.8335 9.29126 74.9217 18.7868C73.8465 19.7247 72.7951 20.6895 71.7687 21.6804C71.0813 21.0215 70.3817 20.3754 69.6704 19.7424C58.2345 9.5883 46.7718 5.30987 39.889 9.29406C33.2892 13.1146 31.3344 24.4597 34.1125 38.6557C34.3889 40.0615 34.701 41.4601 35.0484 42.85C33.4265 43.3107 31.8601 43.8017 30.3615 44.324C16.9545 48.9981 8.39209 56.3242 8.39209 63.9227C8.39209 71.7711 17.5834 79.6431 31.5485 84.4158C32.6808 84.801 33.8226 85.158 34.9728 85.4863C34.5991 86.9837 34.2674 88.4914 33.978 90.0074C31.3293 103.957 33.3979 115.033 39.9803 118.83C46.7791 122.75 58.1897 118.721 69.301 109.008C70.1792 108.24 71.0608 107.426 71.9435 106.572C73.0553 107.645 74.1968 108.687 75.3667 109.696C86.1295 118.957 96.7588 122.697 103.336 118.89C110.128 114.958 112.335 103.059 109.469 88.5822C109.251 87.4764 108.996 86.3471 108.71 85.1971C109.511 84.9606 110.297 84.7162 111.065 84.4618C125.582 79.6521 135.028 71.8759 135.028 63.9227C135.028 56.2967 126.189 48.9213 112.512 44.213Z" fill="#53C1DE"/>
<path d="M109.363 79.3269C108.671 79.5561 107.96 79.7774 107.236 79.9921C105.633 74.9184 103.47 69.523 100.823 63.9494C103.349 58.5075 105.428 53.1816 106.986 48.1404C108.282 48.5159 109.539 48.9111 110.751 49.3286C122.47 53.3621 129.618 59.3269 129.618 63.9225C129.618 68.818 121.897 75.1734 109.363 79.3269ZM104.162 89.6328C105.429 96.0342 105.61 101.822 104.77 106.346C104.016 110.412 102.5 113.122 100.624 114.208C96.6334 116.518 88.0984 113.515 78.8948 105.595C77.8395 104.687 76.7763 103.717 75.7104 102.692C79.2787 98.7888 82.8448 94.2514 86.3251 89.2131C92.4474 88.67 98.2312 87.7817 103.476 86.5695C103.734 87.6119 103.964 88.6336 104.162 89.6328ZM51.5642 113.809C47.6652 115.186 44.5598 115.225 42.6829 114.143C38.6881 111.839 37.028 102.945 39.2928 91.016C39.5621 89.6062 39.8705 88.2042 40.2175 86.8116C45.4044 87.9588 51.1461 88.7843 57.283 89.282C60.7863 94.2122 64.4555 98.744 68.1533 102.712C67.3675 103.473 66.563 104.213 65.7406 104.934C60.8272 109.229 55.9037 112.276 51.5648 113.809H51.5642ZM33.2977 79.2966C27.1228 77.186 22.0233 74.4432 18.5278 71.4504C15.3871 68.7603 13.801 66.0898 13.801 63.9225C13.801 59.3118 20.676 53.4299 32.1421 49.4323C33.5812 48.9327 35.0347 48.4754 36.5006 48.0609C38.0856 53.2153 40.1643 58.6045 42.6728 64.0542C40.1318 69.5852 38.0234 75.0602 36.4239 80.2751C35.374 79.9746 34.3316 79.6483 33.2977 79.2966ZM39.4211 37.6164C37.0409 25.4532 38.6214 16.2781 42.5988 13.9758C46.8358 11.5233 56.2036 15.0205 66.0775 23.7875C66.7085 24.348 67.3424 24.9347 67.9774 25.5417C64.2986 29.4923 60.663 33.9898 57.19 38.8915C51.2341 39.4435 45.5327 40.3301 40.2915 41.5177C39.9686 40.2246 39.6784 38.9242 39.4211 37.6164ZM94.0458 51.1046C92.8078 48.9662 91.5239 46.8547 90.195 44.7716C94.2358 45.2816 98.1068 45.9598 101.742 46.7898C100.651 50.2875 99.2904 53.9449 97.6887 57.6943C96.5184 55.4737 95.3038 53.2767 94.0458 51.1046ZM71.7699 29.4076C74.265 32.1107 76.764 35.1292 79.2221 38.4039C74.2358 38.1682 69.2413 38.1671 64.2549 38.4005C66.7152 35.1561 69.2356 32.142 71.7699 29.4076ZM49.351 51.1416C48.1088 53.2964 46.9169 55.48 45.7765 57.6904C44.2011 53.9539 42.8533 50.2802 41.7526 46.7326C45.3657 45.9239 49.2188 45.2631 53.2332 44.7615C51.8894 46.8576 50.595 48.9848 49.351 51.1416ZM53.3487 83.4696C49.2014 83.0067 45.2901 82.3796 41.678 81.5933C42.7961 77.9829 44.1737 74.2302 45.7827 70.4136C46.9279 72.6256 48.125 74.8105 49.3729 76.9663C50.6463 79.1653 51.9719 81.3338 53.3487 83.4696ZM71.9195 98.8196C69.3555 96.0527 66.7982 92.9927 64.3003 89.7012C66.7248 89.7965 69.1969 89.8447 71.7093 89.8447C74.2907 89.8447 76.8424 89.787 79.3538 89.6749C76.8878 93.0263 74.3978 96.0908 71.9195 98.8196ZM97.7402 70.2191C99.4328 74.0772 100.86 77.8097 101.993 81.359C98.3209 82.1969 94.3568 82.8716 90.1799 83.3727C91.5184 81.2507 92.8146 79.1023 94.0677 76.9287C95.3415 74.7197 96.566 72.4826 97.7402 70.2191ZM89.3812 74.2263C87.463 77.5586 85.4368 80.8277 83.306 84.0284C79.5488 84.2969 75.6661 84.4353 71.7093 84.4353C67.7689 84.4353 63.9354 84.3125 60.2438 84.0732C58.0578 80.88 55.9933 77.6053 54.0548 74.256C52.1254 70.9244 50.3233 67.5208 48.6522 64.0525C50.319 60.5832 52.1157 57.1778 54.0386 53.8435V53.8446C55.9608 50.5097 58.009 47.2489 60.1788 44.0694C63.945 43.7847 67.8064 43.6356 71.7099 43.6356C75.6308 43.6356 79.4973 43.7858 83.2623 44.0728C85.4101 47.2474 87.4452 50.4968 89.3639 53.8149C91.2933 57.1418 93.114 60.5305 94.8231 63.9758C93.1316 67.4561 91.3161 70.8751 89.3812 74.2263ZM100.541 13.815C104.782 16.2608 106.431 26.1229 103.767 39.0562C103.592 39.8988 103.402 40.7381 103.197 41.5737C97.9437 40.3615 92.2384 39.4592 86.2652 38.8987C82.7854 33.9439 79.1801 29.4385 75.5607 25.5389C76.5091 24.6246 77.4801 23.7339 78.4728 22.8678C87.8221 14.7313 96.56 11.5189 100.541 13.815Z" fill="white"/>
<path d="M71.7099 52.6143C77.9555 52.6143 83.018 57.6773 83.018 63.9223C83.018 70.1679 77.9555 75.2309 71.7099 75.2309C65.4649 75.2309 60.4019 70.1679 60.4019 63.9223C60.4019 57.6773 65.4649 52.6143 71.7099 52.6143Z" fill="#53C1DE"/>
</svg>
