<svg width="109" height="109" viewBox="0 0 109 109" fill="none" xmlns="http://www.w3.org/2000/svg">
<g clip-path="url(#clip0_23_15293)">
<path d="M8.48399 0.00732422H99.7683C104.436 0.00732422 108.221 3.79153 108.221 8.45958V99.7439C108.221 104.412 104.436 108.196 99.7683 108.196H8.48399C3.81594 108.196 0.0317383 104.412 0.0317383 99.7439V8.45958C0.0317383 3.79153 3.81594 0.00732422 8.48399 0.00732422Z" fill="#3178C6"/>
<path d="M63.6426 84.7308V96.4033C65.5409 97.3762 67.7863 98.1056 70.3782 98.592C72.9701 99.0785 75.7018 99.3215 78.5739 99.3215C81.3724 99.3215 84.0315 99.0539 86.5503 98.5189C89.0691 97.9839 91.2781 97.1023 93.176 95.8746C95.0744 94.6465 96.5772 93.0414 97.6849 91.0594C98.7921 89.0778 99.3457 86.6279 99.3457 83.7097C99.3457 81.5941 99.0292 79.7397 98.3965 78.1469C97.7639 76.5541 96.851 75.1375 95.6584 73.8975C94.4662 72.6571 93.0361 71.5448 91.3693 70.5597C89.7021 69.575 87.8219 68.6449 85.7287 67.7696C84.1955 67.137 82.8207 66.5233 81.6036 65.9275C80.3869 65.3316 79.3523 64.7239 78.5008 64.1035C77.6488 63.4835 76.9916 62.8268 76.5293 62.1337C76.067 61.4406 75.8358 60.6566 75.8358 59.781C75.8358 58.9784 76.0424 58.2553 76.4562 57.6109C76.8699 56.9664 77.4544 56.4132 78.2088 55.9513C78.9631 55.4889 79.8878 55.1306 80.9832 54.8749C82.0782 54.6196 83.2953 54.492 84.6337 54.492C85.6074 54.492 86.6357 54.5651 87.7184 54.7109C88.8015 54.8567 89.8906 55.0815 90.986 55.3858C92.081 55.6897 93.1456 56.0726 94.1801 56.5349C95.2143 56.9968 96.1698 57.5318 97.0459 58.1396V47.2332C95.2692 46.5524 93.3281 46.0478 91.2231 45.7194C89.1181 45.391 86.7024 45.2271 83.9766 45.2271C81.2021 45.2271 78.5739 45.525 76.0915 46.1209C73.609 46.7163 71.4246 47.6465 69.5384 48.911C67.6523 50.1758 66.1618 51.7868 65.0663 53.7444C63.9714 55.7019 63.4237 58.0424 63.4237 60.7661C63.4237 64.2433 64.4274 67.2101 66.4356 69.6663C68.4434 72.1221 71.4913 74.2014 75.5801 75.9037C77.1865 76.5604 78.6834 77.2045 80.0704 77.8371C81.4578 78.4693 82.6563 79.1257 83.6664 79.8065C84.6764 80.4873 85.4735 81.229 86.0575 82.0315C86.6416 82.8341 86.9336 83.7461 86.9336 84.7675C86.9336 85.521 86.751 86.2205 86.3859 86.865C86.0212 87.509 85.4671 88.0686 84.725 88.5427C83.9829 89.0169 83.0578 89.3875 81.9506 89.655C80.8433 89.9226 79.5472 90.0565 78.0625 90.0565C75.5315 90.0565 73.025 89.6128 70.5426 88.7249C68.0597 87.8374 65.7599 86.5062 63.6426 84.7308ZM44.1872 55.6833H59.1975V46.0723H17.3589V55.6833H32.296V98.4762H44.1872V55.6833Z" fill="white"/>
</g>
<defs>
<clipPath id="clip0_23_15293">
<rect width="108.189" height="108.189" fill="white" transform="translate(0.0317383 0.00732422)"/>
</clipPath>
</defs>
</svg>
