<svg width="117" height="117" viewBox="0 0 117 117" fill="none" xmlns="http://www.w3.org/2000/svg">
<g clip-path="url(#clip0_23_15294)">
<path d="M8.40546 57.8753C8.40546 77.4784 19.7977 94.4193 36.3174 102.447L12.6932 37.72C9.94529 43.8793 8.40546 50.6954 8.40546 57.8753ZM91.3638 55.3762C91.3638 49.2555 89.1652 45.0167 87.2796 41.7175C84.7691 37.638 82.416 34.1833 82.416 30.1038C82.416 25.5512 85.8688 21.3134 90.7324 21.3134C90.952 21.3134 91.1602 21.3407 91.3742 21.353C82.563 13.2807 70.824 8.35212 57.9305 8.35212C40.6287 8.35212 25.4067 17.2292 16.5513 30.6749C17.7132 30.7097 18.8082 30.7342 19.7383 30.7342C24.9185 30.7342 32.9371 30.1057 32.9371 30.1057C35.6068 29.9483 35.9216 33.8695 33.2547 34.1852C33.2547 34.1852 30.5718 34.5009 27.5864 34.6573L45.6214 88.3015L56.4595 55.7965L48.7434 34.6554C46.0765 34.499 43.55 34.1833 43.55 34.1833C40.8813 34.0269 41.1941 29.9464 43.8629 30.1038C43.8629 30.1038 52.0417 30.7324 56.9081 30.7324C62.0873 30.7324 70.1068 30.1038 70.1068 30.1038C72.7785 29.9464 73.0923 33.8676 70.4244 34.1833C70.4244 34.1833 67.7359 34.499 64.7561 34.6554L82.6535 87.8934L87.5934 71.386C89.7344 64.536 91.3638 59.6159 91.3638 55.3762ZM58.7994 62.2074L43.9402 105.386C48.3768 106.69 53.0689 107.403 57.9305 107.403C63.6978 107.403 69.2286 106.406 74.3767 104.596C74.2438 104.384 74.1232 104.159 74.0243 103.914L58.7994 62.2074ZM101.387 34.1145C101.6 35.692 101.72 37.3855 101.72 39.207C101.72 44.2327 100.782 49.8822 97.9547 56.9461L82.8269 100.684C97.5504 92.0983 107.454 76.1468 107.454 57.8763C107.455 49.2659 105.255 41.1691 101.387 34.1145ZM57.9305 0.145996C26.0984 0.145996 0.199341 26.0431 0.199341 57.8753C0.199341 89.7112 26.0984 115.607 57.9305 115.607C89.7618 115.607 115.665 89.7112 115.665 57.8753C115.664 26.0431 89.7618 0.145996 57.9305 0.145996ZM57.9305 112.961C27.5581 112.961 2.84645 88.2496 2.84645 57.8753C2.84645 27.5029 27.5572 2.7931 57.9305 2.7931C88.302 2.7931 113.012 27.5029 113.012 57.8753C113.012 88.2496 88.302 112.961 57.9305 112.961Z" fill="#28799E"/>
</g>
<defs>
<clipPath id="clip0_23_15294">
<rect width="115.911" height="115.911" fill="white" transform="translate(0.199341 0.145996)"/>
</clipPath>
</defs>
</svg>
