<svg width="2505" height="557" viewBox="0 0 2505 557" fill="none" xmlns="http://www.w3.org/2000/svg">
<path d="M0 549.473V15.054H123.443V441.084H382.373V549.473H0Z" fill="white"/>
<path d="M617.24 557C583.619 557 553.762 551.731 527.668 541.193C501.574 530.154 479.244 515.35 460.678 496.784C442.613 478.217 428.813 456.891 419.279 432.804C409.745 408.216 404.978 382.624 404.978 356.028C404.978 317.891 413.257 283.267 429.817 252.155C446.878 220.542 471.215 195.201 502.829 176.132C534.442 156.562 572.579 146.777 617.24 146.777C661.9 146.777 699.786 156.311 730.898 175.38C762.511 194.448 786.598 219.538 803.157 250.65C819.717 281.26 827.997 314.63 827.997 350.759C827.997 357.785 827.495 364.81 826.491 371.835C825.989 378.359 825.488 384.129 824.986 389.147H532.937C534.442 406.71 539.21 421.514 547.238 433.557C555.769 445.6 566.558 454.883 579.605 461.407C592.651 467.428 606.451 470.439 621.003 470.439C639.068 470.439 655.878 466.174 671.434 457.643C687.492 449.113 698.532 437.571 704.553 423.019L806.921 451.622C796.885 472.196 782.583 490.511 764.017 506.569C745.952 522.125 724.374 534.419 699.284 543.451C674.696 552.484 647.348 557 617.24 557ZM529.926 315.382H701.542C699.535 298.823 694.768 284.522 687.241 272.478C679.714 259.933 669.678 250.399 657.133 243.876C644.588 236.85 630.788 233.338 615.734 233.338C600.179 233.338 586.128 236.85 573.583 243.876C561.54 250.399 551.755 259.933 544.228 272.478C536.701 284.522 531.933 298.823 529.926 315.382Z" fill="white"/>
<path d="M1070.75 557C1037.13 557 1007.03 551.48 980.431 540.441C954.337 529.401 932.258 514.347 914.193 495.278C896.128 476.21 882.328 454.382 872.794 429.793C863.762 405.205 859.245 379.362 859.245 352.265C859.245 324.666 863.762 298.572 872.794 273.984C882.328 249.396 896.128 227.567 914.193 208.499C932.258 189.43 954.337 174.376 980.431 163.336C1007.03 152.297 1037.13 146.777 1070.75 146.777C1104.38 146.777 1134.23 152.297 1160.33 163.336C1186.42 174.376 1208.5 189.43 1226.56 208.499C1244.63 227.567 1258.43 249.396 1267.96 273.984C1277.5 298.572 1282.26 324.666 1282.26 352.265C1282.26 379.362 1277.5 405.205 1267.96 429.793C1258.43 454.382 1244.63 476.21 1226.56 495.278C1208.5 514.347 1186.42 529.401 1160.33 540.441C1134.23 551.48 1104.38 557 1070.75 557ZM982.689 352.265C982.689 372.839 986.452 390.904 993.979 406.459C1002.01 422.015 1012.55 434.059 1025.59 442.589C1038.64 451.12 1053.69 455.385 1070.75 455.385C1087.31 455.385 1102.12 451.12 1115.16 442.589C1128.71 433.557 1139.25 421.263 1146.78 405.707C1154.3 390.151 1158.07 372.337 1158.07 352.265C1158.07 331.691 1154.3 313.626 1146.78 298.07C1139.25 282.514 1128.71 270.471 1115.16 261.941C1102.12 253.41 1087.31 249.145 1070.75 249.145C1053.69 249.145 1038.64 253.41 1025.59 261.941C1012.55 270.471 1002.01 282.514 993.979 298.07C986.452 313.626 982.689 331.691 982.689 352.265Z" fill="white"/>
<path d="M1468.61 243.876V549.473H1345.16V15.054H1443.01L1690.65 329.684V15.054H1814.1V549.473H1713.23L1468.61 243.876Z" fill="white"/>
<path d="M1905.77 549.473V426.782H2004.37V549.473H1905.77Z" fill="#6809BD"/>
<path d="M2337.38 528.397C2326.34 532.914 2314.05 537.43 2300.5 541.946C2287.45 546.462 2273.65 549.975 2259.1 552.484C2244.55 555.495 2230.25 557 2216.2 557C2196.13 557 2177.56 553.738 2160.5 547.215C2143.94 540.19 2130.64 528.899 2120.6 513.343C2111.07 497.787 2106.3 477.214 2106.3 451.622V245.381H2055.87V154.304H2106.3V28.6027H2226.74V154.304H2307.27V245.381H2226.74V410.223C2226.74 423.27 2230 432.804 2236.52 438.826C2243.04 444.346 2251.32 447.105 2261.36 447.105C2269.89 447.105 2278.92 445.6 2288.46 442.589C2298.49 439.578 2307.02 436.317 2314.05 432.804L2337.38 528.397Z" fill="white"/>
<path fill-rule="evenodd" clip-rule="evenodd" d="M2384.31 154.304V549.473H2504.74V154.304H2384.31Z" fill="white"/>
<path d="M2384.31 109.142V0H2504.74V109.142H2384.31Z" fill="#6809BD"/>
</svg>
