<svg width="62" height="64" viewBox="0 0 62 64" fill="none" xmlns="http://www.w3.org/2000/svg">
<path d="M13.7679 63.092H1.01578V20.9696H13.7679V63.092ZM7.38496 15.2238C3.30813 15.2238 0 11.7593 0 7.57667C0 5.56721 0.778056 3.64006 2.16301 2.21915C3.54796 0.798254 5.42635 0 7.38496 0C9.34358 0 11.222 0.798254 12.6069 2.21915C13.9919 3.64006 14.7699 5.56721 14.7699 7.57667C14.7699 11.7593 11.4618 15.2238 7.38496 15.2238ZM61.4819 63.092H48.7572V42.5871C48.7572 37.7003 48.6611 31.4333 42.1272 31.4333C35.4972 31.4333 34.4815 36.7426 34.4815 42.235V63.092H21.7431V20.9696H33.9736V26.7155H34.152C35.8541 23.406 40.0133 19.9134 46.2178 19.9134C59.1209 19.9134 61.4956 28.6308 61.4956 39.9535V63.092H61.4819Z" fill="white"/>
</svg>
