<svg width="62" height="47" viewBox="0 0 62 47" fill="none" xmlns="http://www.w3.org/2000/svg">
<path d="M5.76521 0.640625C2.58233 0.640625 0 3.22296 0 6.40584C0 8.21948 0.852771 9.92502 2.30609 11.018L28.4417 30.6197C29.811 31.6407 31.6847 31.6407 33.0539 30.6197L59.1895 11.018C60.6428 9.92502 61.4956 8.21948 61.4956 6.40584C61.4956 3.22296 58.9133 0.640625 55.7304 0.640625H5.76521ZM0 14.0928V39.0754C0 43.3152 3.44712 46.7623 7.68695 46.7623H53.8087C58.0485 46.7623 61.4956 43.3152 61.4956 39.0754V14.0928L35.36 33.6945C32.6215 35.7484 28.8741 35.7484 26.1356 33.6945L0 14.0928Z" fill="white"/>
</svg>
