<svg width="62" height="64" viewBox="0 0 62 64" fill="none" xmlns="http://www.w3.org/2000/svg">
<path d="M52.285 9.25985C46.5335 3.34498 38.874 0.0917969 30.7341 0.0917969C13.9326 0.0917969 0.260807 14.1185 0.260807 31.3561C0.260807 36.8626 1.66093 42.2423 4.32391 46.9883L0 63.1837L16.1563 58.8321C20.6038 61.3248 25.614 62.6345 30.7204 62.6345H30.7341C47.5218 62.6345 61.4956 48.6078 61.4956 31.3702C61.4956 23.019 58.0365 15.1747 52.285 9.25985ZM30.7341 57.3675C26.1768 57.3675 21.7156 56.1141 17.831 53.7481L16.9113 53.1848L7.33006 55.762L9.88322 46.1715L9.27925 45.1856C6.73981 41.0452 5.40832 36.2711 5.40832 31.3561C5.40832 17.0337 16.774 5.37293 30.7478 5.37293C37.5151 5.37293 43.8705 8.07687 48.6474 12.9918C53.4243 17.9068 56.3618 24.4273 56.3481 31.3702C56.3481 45.7067 44.6941 57.3675 30.7341 57.3675ZM44.6255 37.9047C43.8705 37.5104 40.1231 35.6233 39.4231 35.3698C38.723 35.1022 38.2151 34.9754 37.7072 35.7641C37.1994 36.5527 35.7443 38.299 35.2913 38.8342C34.8521 39.3553 34.3991 39.4257 33.6441 39.0314C29.1692 36.7358 26.2317 34.9332 23.2805 29.7366C22.4981 28.3564 24.0629 28.455 25.5179 25.4694C25.765 24.9483 25.6415 24.4977 25.4493 24.1034C25.2571 23.709 23.7335 19.8644 23.102 18.3011C22.4843 16.7802 21.8529 16.9914 21.3862 16.9633C20.9469 16.9351 20.4391 16.9351 19.9312 16.9351C19.4233 16.9351 18.5997 17.1323 17.8996 17.9068C17.1996 18.6955 15.2366 20.5826 15.2366 24.4273C15.2366 28.2719 17.9682 31.9898 18.3389 32.5109C18.7232 33.032 23.706 40.9185 31.3518 44.3125C36.1836 46.4531 38.0779 46.6362 40.4938 46.27C41.9625 46.0447 44.9961 44.3829 45.6275 42.5521C46.259 40.7213 46.259 39.1581 46.0668 38.8342C45.8884 38.4821 45.3805 38.285 44.6255 37.9047Z" fill="white"/>
</svg>
