<svg width="17" height="18" viewBox="0 0 17 18" fill="none" xmlns="http://www.w3.org/2000/svg">
<g clip-path="url(#clip0_23_11043)">
<path d="M9.28535 1.98958C9.28535 1.42223 8.82698 0.963867 8.25964 0.963867C7.69229 0.963867 7.23393 1.42223 7.23393 1.98958V9.76895L4.88121 7.41623C4.48054 7.01556 3.82985 7.01556 3.42918 7.41623C3.02852 7.8169 3.02852 8.46758 3.42918 8.86825L7.53203 12.9711C7.93269 13.3718 8.58338 13.3718 8.98405 12.9711L13.0869 8.86825C13.4876 8.46758 13.4876 7.8169 13.0869 7.41623C12.6862 7.01556 12.0355 7.01556 11.6349 7.41623L9.28535 9.76895V1.98958ZM2.10538 12.2467C0.973889 12.2467 0.0539551 13.1666 0.0539551 14.2981V15.3238C0.0539551 16.4553 0.973889 17.3752 2.10538 17.3752H14.4139C15.5454 17.3752 16.4653 16.4553 16.4653 15.3238V14.2981C16.4653 13.1666 15.5454 12.2467 14.4139 12.2467H11.1605L9.70846 13.6987C8.90712 14.5 7.60895 14.5 6.80762 13.6987L5.3588 12.2467H2.10538ZM13.901 14.0417C14.1051 14.0417 14.3007 14.1227 14.445 14.267C14.5893 14.4113 14.6703 14.6069 14.6703 14.811C14.6703 15.015 14.5893 15.2107 14.445 15.3549C14.3007 15.4992 14.1051 15.5802 13.901 15.5802C13.697 15.5802 13.5014 15.4992 13.3571 15.3549C13.2128 15.2107 13.1318 15.015 13.1318 14.811C13.1318 14.6069 13.2128 14.4113 13.3571 14.267C13.5014 14.1227 13.697 14.0417 13.901 14.0417Z" fill="white"/>
</g>
<defs>
<clipPath id="clip0_23_11043">
<rect width="16.4114" height="16.4114" fill="white" transform="translate(0.0541992 0.963989)"/>
</clipPath>
</defs>
</svg>
