<svg width="19" height="19" viewBox="0 0 19 19" fill="none" xmlns="http://www.w3.org/2000/svg">
<path d="M15.924 3.30487C14.2276 1.60435 11.9683 0.669067 9.56734 0.669067C4.61154 0.669067 0.578881 4.70173 0.578881 9.65753C0.578881 11.2406 0.991865 12.7873 1.77734 14.1518L0.501953 18.8079L5.26746 17.5569C6.57929 18.2735 8.05712 18.65 9.5633 18.65H9.56734C14.5191 18.65 18.6408 14.6174 18.6408 9.66158C18.6408 7.26061 17.6205 5.00539 15.924 3.30487ZM9.56734 17.1358C8.22312 17.1358 6.90724 16.7754 5.76142 16.0952L5.49014 15.9333L2.66404 16.6742L3.41713 13.9169L3.23898 13.6335C2.48994 12.4431 2.0972 11.0706 2.0972 9.65753C2.0972 5.53984 5.44966 2.18739 9.57139 2.18739C11.5675 2.18739 13.4421 2.96477 14.8511 4.37782C16.2601 5.79087 17.1266 7.66549 17.1225 9.66158C17.1225 13.7833 13.685 17.1358 9.56734 17.1358ZM13.6648 11.5402C13.4421 11.4269 12.3368 10.8843 12.1303 10.8115C11.9238 10.7345 11.774 10.6981 11.6242 10.9248C11.4744 11.1516 11.0452 11.6536 10.9116 11.8075C10.782 11.9573 10.6484 11.9775 10.4257 11.8642C9.10577 11.2042 8.23932 10.6859 7.36882 9.19191C7.13803 8.79512 7.5996 8.82347 8.02878 7.96511C8.10166 7.8153 8.06522 7.68574 8.00853 7.57237C7.95185 7.459 7.50243 6.35366 7.31618 5.90424C7.13398 5.46696 6.94773 5.5277 6.81007 5.5196C6.68051 5.5115 6.5307 5.5115 6.38089 5.5115C6.23109 5.5115 5.98815 5.56818 5.78166 5.79087C5.57517 6.01761 4.99618 6.56015 4.99618 7.66549C4.99618 8.77083 5.80191 9.83973 5.91123 9.98954C6.02459 10.1393 7.49433 12.4067 9.74954 13.3825C11.1747 13.9979 11.7335 14.0505 12.4461 13.9453C12.8793 13.8805 13.7741 13.4027 13.9604 12.8764C14.1466 12.35 14.1466 11.9006 14.0899 11.8075C14.0373 11.7063 13.8875 11.6496 13.6648 11.5402Z" fill="white"/>
</svg>
