<svg width="19" height="22" viewBox="0 0 19 22" fill="none" xmlns="http://www.w3.org/2000/svg">
<g clip-path="url(#clip0_23_11049)">
<path d="M15.924 4.30487C14.2276 2.60435 11.9683 1.66907 9.56734 1.66907C4.61154 1.66907 0.578881 5.70173 0.578881 10.6575C0.578881 12.2406 0.991865 13.7873 1.77734 15.1518L0.501953 19.8079L5.26746 18.5569C6.57929 19.2735 8.05712 19.65 9.5633 19.65H9.56734C14.5191 19.65 18.6408 15.6174 18.6408 10.6616C18.6408 8.26061 17.6205 6.00539 15.924 4.30487ZM9.56734 18.1358C8.22312 18.1358 6.90724 17.7754 5.76142 17.0952L5.49014 16.9333L2.66404 17.6742L3.41713 14.9169L3.23898 14.6335C2.48994 13.4431 2.0972 12.0706 2.0972 10.6575C2.0972 6.53984 5.44966 3.18739 9.57139 3.18739C11.5675 3.18739 13.4421 3.96477 14.8511 5.37782C16.2601 6.79087 17.1266 8.66549 17.1225 10.6616C17.1225 14.7833 13.685 18.1358 9.56734 18.1358ZM13.6648 12.5402C13.4421 12.4269 12.3368 11.8843 12.1303 11.8115C11.9238 11.7345 11.774 11.6981 11.6242 11.9248C11.4744 12.1516 11.0452 12.6536 10.9116 12.8075C10.782 12.9573 10.6484 12.9775 10.4257 12.8642C9.10577 12.2042 8.23932 11.6859 7.36882 10.1919C7.13803 9.79512 7.5996 9.82347 8.02878 8.96511C8.10166 8.8153 8.06522 8.68574 8.00853 8.57237C7.95185 8.459 7.50243 7.35366 7.31618 6.90424C7.13398 6.46696 6.94773 6.5277 6.81007 6.5196C6.68051 6.5115 6.5307 6.5115 6.38089 6.5115C6.23109 6.5115 5.98815 6.56818 5.78166 6.79087C5.57517 7.01761 4.99618 7.56015 4.99618 8.66549C4.99618 9.77083 5.80191 10.8397 5.91123 10.9895C6.02459 11.1393 7.49433 13.4067 9.74954 14.3825C11.1747 14.9979 11.7335 15.0505 12.4461 14.9453C12.8793 14.8805 13.7741 14.4027 13.9604 13.8764C14.1466 13.35 14.1466 12.9006 14.0899 12.8075C14.0373 12.7063 13.8875 12.6496 13.6648 12.5402Z" fill="white"/>
</g>
<defs>
<clipPath id="clip0_23_11049">
<rect width="18.1389" height="20.7302" fill="white" transform="translate(0.501953 0.372925)"/>
</clipPath>
</defs>
</svg>
