<svg width="46" height="46" viewBox="0 0 46 46" fill="none" xmlns="http://www.w3.org/2000/svg">
<path d="M14.7824 3.84863H30.6153C36.6469 3.84863 41.5475 8.7493 41.5475 14.7809V30.6138C41.5475 33.5132 40.3958 36.2939 38.3456 38.3441C36.2954 40.3943 33.5147 41.5461 30.6153 41.5461H14.7824C8.75077 41.5461 3.8501 36.6454 3.8501 30.6138V14.7809C3.8501 11.8815 5.00189 9.10081 7.05208 7.05062C9.10228 5.00042 11.8829 3.84863 14.7824 3.84863ZM14.4054 7.61838C12.6057 7.61838 10.8798 8.33328 9.60728 9.60582C8.33475 10.8784 7.61984 12.6043 7.61984 14.4039V30.9908C7.61984 34.7417 10.6545 37.7763 14.4054 37.7763H30.9923C32.7919 37.7763 34.5178 37.0614 35.7904 35.7889C37.0629 34.5164 37.7778 32.7904 37.7778 30.9908V14.4039C37.7778 10.653 34.7432 7.61838 30.9923 7.61838H14.4054ZM32.5944 10.4457C33.2193 10.4457 33.8186 10.6939 34.2604 11.1358C34.7023 11.5776 34.9505 12.1769 34.9505 12.8018C34.9505 13.4267 34.7023 14.0259 34.2604 14.4678C33.8186 14.9096 33.2193 15.1579 32.5944 15.1579C31.9695 15.1579 31.3702 14.9096 30.9284 14.4678C30.4865 14.0259 30.2383 13.4267 30.2383 12.8018C30.2383 12.1769 30.4865 11.5776 30.9284 11.1358C31.3702 10.6939 31.9695 10.4457 32.5944 10.4457ZM22.6988 13.273C25.1983 13.273 27.5954 14.2659 29.3629 16.0333C31.1303 17.8007 32.1232 20.1979 32.1232 22.6974C32.1232 25.1969 31.1303 27.594 29.3629 29.3614C27.5954 31.1288 25.1983 32.1217 22.6988 32.1217C20.1993 32.1217 17.8022 31.1288 16.0348 29.3614C14.2674 27.594 13.2745 25.1969 13.2745 22.6974C13.2745 20.1979 14.2674 17.8007 16.0348 16.0333C17.8022 14.2659 20.1993 13.273 22.6988 13.273ZM22.6988 17.0427C21.1991 17.0427 19.7608 17.6385 18.7004 18.6989C17.64 19.7594 17.0442 21.1977 17.0442 22.6974C17.0442 24.1971 17.64 25.6353 18.7004 26.6958C19.7608 27.7562 21.1991 28.352 22.6988 28.352C24.1985 28.352 25.6368 27.7562 26.6972 26.6958C27.7577 25.6353 28.3534 24.1971 28.3534 22.6974C28.3534 21.1977 27.7577 19.7594 26.6972 18.6989C25.6368 17.6385 24.1985 17.0427 22.6988 17.0427Z" fill="#BABABA"/>
</svg>
