<svg width="46" height="46" viewBox="0 0 46 46" fill="none" xmlns="http://www.w3.org/2000/svg">
<g clip-path="url(#clip0_23_15329)">
<path d="M34.101 5.7334C35.6007 5.7334 37.0389 6.32915 38.0994 7.3896C39.1598 8.45004 39.7556 9.88832 39.7556 11.388V34.0065C39.7556 35.5062 39.1598 36.9445 38.0994 38.0049C37.0389 39.0654 35.6007 39.6611 34.101 39.6611H11.4825C9.9828 39.6611 8.54453 39.0654 7.48408 38.0049C6.42363 36.9445 5.82788 35.5062 5.82788 34.0065V11.388C5.82788 9.88832 6.42363 8.45004 7.48408 7.3896C8.54453 6.32915 9.9828 5.7334 11.4825 5.7334H34.101ZM34.101 9.50314H11.4825C10.9826 9.50314 10.5032 9.70173 10.1497 10.0552C9.79621 10.4087 9.59763 10.8881 9.59763 11.388V34.0065C9.59763 34.5064 9.79621 34.9858 10.1497 35.3393C10.5032 35.6928 10.9826 35.8914 11.4825 35.8914H34.101C34.6009 35.8914 35.0803 35.6928 35.4338 35.3393C35.7873 34.9858 35.9858 34.5064 35.9858 34.0065V11.388C35.9858 10.8881 35.7873 10.4087 35.4338 10.0552C35.0803 9.70173 34.6009 9.50314 34.101 9.50314ZM15.2522 18.9275C15.7139 18.9276 16.1595 19.0971 16.5045 19.4038C16.8495 19.7106 17.0699 20.1334 17.1239 20.5918L17.1371 20.8124V30.2367C17.1366 30.7172 16.9526 31.1792 16.6228 31.5286C16.293 31.8779 15.8423 32.0881 15.3627 32.1163C14.8831 32.1444 14.4109 31.9884 14.0425 31.6801C13.6741 31.3717 13.4373 30.9343 13.3806 30.4573L13.3674 30.2367V20.8124C13.3674 20.3125 13.566 19.8331 13.9194 19.4796C14.2729 19.1261 14.7523 18.9275 15.2522 18.9275ZM20.9069 17.0426C21.3483 17.0426 21.7757 17.1974 22.1147 17.4802C22.4536 17.763 22.6826 18.1558 22.7616 18.5901C23.1409 18.3702 23.533 18.1732 23.9359 18.0001C25.1931 17.463 27.076 17.167 28.7762 17.7005C29.6677 17.9832 30.5631 18.5109 31.2265 19.41C31.8203 20.2111 32.1407 21.1856 32.2048 22.2807L32.2161 22.6973V30.2367C32.2156 30.7172 32.0316 31.1792 31.7018 31.5286C31.372 31.8779 30.9213 32.0881 30.4417 32.1163C29.9621 32.1444 29.4899 31.9884 29.1215 31.6801C28.753 31.3717 28.5163 30.9343 28.4595 30.4573L28.4464 30.2367V22.6973C28.4464 22.0752 28.2956 21.785 28.1975 21.6511C28.0569 21.4761 27.863 21.3517 27.6453 21.2968C26.9893 21.0895 26.045 21.1988 25.4174 21.4664C24.4749 21.8698 23.6117 22.5031 23.0236 23.0893L22.7917 23.3381V30.2367C22.7912 30.7172 22.6072 31.1792 22.2774 31.5286C21.9477 31.8779 21.4969 32.0881 21.0173 32.1163C20.5377 32.1444 20.0655 31.9884 19.6971 31.6801C19.3287 31.3717 19.0919 30.9343 19.0352 30.4573L19.022 30.2367V18.9275C19.022 18.4276 19.2206 17.9482 19.5741 17.5947C19.9275 17.2412 20.407 17.0426 20.9069 17.0426ZM15.2522 13.2729C15.7521 13.2729 16.2316 13.4715 16.585 13.825C16.9385 14.1784 17.1371 14.6579 17.1371 15.1578C17.1371 15.6577 16.9385 16.1371 16.585 16.4906C16.2316 16.844 15.7521 17.0426 15.2522 17.0426C14.7523 17.0426 14.2729 16.844 13.9194 16.4906C13.566 16.1371 13.3674 15.6577 13.3674 15.1578C13.3674 14.6579 13.566 14.1784 13.9194 13.825C14.2729 13.4715 14.7523 13.2729 15.2522 13.2729Z" fill="#BABABA"/>
</g>
<defs>
<clipPath id="clip0_23_15329">
<rect width="45.2369" height="45.2369" fill="white" transform="translate(0.171753 0.0791016)"/>
</clipPath>
</defs>
</svg>
