<svg width="46" height="46" viewBox="0 0 46 46" fill="none" xmlns="http://www.w3.org/2000/svg">
<path d="M41.7296 22.6974C41.7328 25.18 41.2439 27.6387 40.2913 29.9314C39.3387 32.224 37.9412 34.3051 36.1796 36.0545C34.4323 37.7987 32.3585 39.1814 30.0767 40.1237C27.7948 41.0659 25.3496 41.5493 22.8808 41.5461C12.4707 41.5461 4.03212 33.1075 4.03212 22.6974C4.02553 17.8643 5.882 13.2147 9.21552 9.71531C10.9744 7.85928 13.0936 6.38168 15.4433 5.37293C17.793 4.36418 20.3238 3.84551 22.8808 3.84865C25.3496 3.84545 27.7948 4.3288 30.0767 5.27108C32.3585 6.21335 34.4323 7.59608 36.1796 9.34022C37.9412 11.0896 39.3387 13.1707 40.2913 15.4634C41.2439 17.756 41.7328 20.2147 41.7296 22.6974Z" stroke="#BABABA" stroke-width="3.76974" stroke-linecap="round" stroke-linejoin="round"/>
<path d="M41.7307 22.6979C38.9806 22.6979 31.394 21.6612 24.6038 24.6421C17.2273 27.8813 11.8865 32.9064 9.55872 36.0305" stroke="#BABABA" stroke-width="3.76974" stroke-linecap="round" stroke-linejoin="round"/>
<path d="M15.8138 5.21973C18.7637 7.94242 25.2005 14.874 27.5943 21.7557C29.9881 28.6374 30.874 37.0986 31.4206 39.5065" stroke="#BABABA" stroke-width="3.76974" stroke-linecap="round" stroke-linejoin="round"/>
<path d="M4.17566 20.3425C7.73618 20.5574 17.1615 20.7506 23.1931 18.1749C29.2247 15.5992 34.4147 10.8616 36.1949 9.3584M5.44418 29.8734C7.10505 33.8937 10.1005 37.2189 13.9261 39.2892" stroke="#BABABA" stroke-width="3.76974" stroke-linecap="round" stroke-linejoin="round"/>
<path d="M4.03212 22.6974C4.02553 17.8643 5.882 13.2147 9.21552 9.71531C10.9744 7.85928 13.0936 6.38167 15.4433 5.37293C17.793 4.36418 20.3238 3.84551 22.8808 3.84865M30.4203 5.41686C32.5668 6.35604 34.5198 7.68647 36.1796 9.34022C37.9412 11.0896 39.3387 13.1707 40.2913 15.4634C41.2439 17.756 41.7328 20.2147 41.7296 22.6974C41.7296 25.0177 41.3102 27.2409 40.5421 29.2944M22.8808 41.5461C25.3496 41.5493 27.7948 41.0659 30.0767 40.1237C32.3585 39.1814 34.4323 37.7987 36.1796 36.0545" stroke="#BABABA" stroke-width="3.76974" stroke-linecap="round" stroke-linejoin="round"/>
</svg>
